<svg width="76" height="86" viewBox="0 0 76 86" fill="none" xmlns="http://www.w3.org/2000/svg">
<path fill-rule="evenodd" clip-rule="evenodd" d="M12.3292 33.2069C11.991 35.0355 12.1413 36.9884 12.1413 38.9538C12.1413 44.7008 12.1914 50.796 12.0786 56.4807C11.3646 57.3017 10.2372 57.7495 9.24766 58.3218C6.77995 59.7398 4.29971 61.0833 1.74431 62.4765C1.2683 62.7252 0.817352 63.2601 0.203555 63.1482C-0.0595005 59.8767 0.0156581 56.3439 0.0156581 52.8236C0.0156581 42.2005 -0.0469742 31.6147 0.0782903 21.1035C0.742193 20.3074 1.83199 19.9591 2.78401 19.3994C5.06382 18.0684 7.43132 16.8617 9.92409 15.481C10.4001 15.2198 11.0014 14.7346 11.4022 14.7471C11.9784 14.772 12.9555 16.0283 13.3062 16.4015C13.9576 17.0981 14.4461 17.6454 14.9722 18.2923C17.9285 21.2155 20.4964 24.5492 23.4652 27.46C24.0289 28.0571 24.4423 28.8159 25.2439 29.1766C25.6698 28.4054 25.4945 27.4351 25.4945 26.5395C25.4945 20.0835 25.4444 13.0553 25.5571 6.62425C27.2858 5.44252 29.2399 4.36031 31.1564 3.26565C33.0855 2.15856 35.0522 1.10122 36.881 0.0812059C37.8581 -0.466121 37.4823 1.90977 37.4948 2.53174C37.6952 15.0083 37.5825 26.6763 37.4948 39.3768C37.4823 40.2351 37.6326 41.0312 37.4322 41.5163C37.1065 42.2751 35.428 42.8847 34.6012 43.3449C32.1335 44.7381 29.8662 46.2059 27.2732 47.624C26.8223 47.8728 26.1709 48.3828 25.7325 48.3579C25.1563 48.333 24.342 47.1389 23.8911 46.5915C22.889 45.3725 21.6864 43.9669 20.6342 42.7354C18.4546 40.2102 16.3376 37.5607 14.1079 34.9733C13.5943 34.3762 13.1434 33.5552 12.3292 33.2069Z" fill="black"/>
<path fill-rule="evenodd" clip-rule="evenodd" d="M39.6494 0.0314636C40.5137 0.292688 42.0419 1.21319 42.9063 1.67344C46.088 3.37762 49.182 5.20619 52.2009 6.87305C55.9087 14.461 59.7293 22.2977 63.4622 29.9727C63.6877 30.4579 63.7378 31.142 64.314 31.3784C64.6522 30.0847 64.5019 28.6542 64.5019 27.2237C64.5019 23.666 64.5019 19.9591 64.5019 16.3393C64.5019 15.6925 64.3641 14.9586 64.6898 14.3864C66.7817 15.17 68.5354 16.4513 70.4144 17.4962C72.2558 18.5411 74.1097 19.6108 75.8884 20.805C75.9135 34.8489 76.1264 49.3531 75.8884 62.9616C74.8613 62.7377 73.8967 62.0784 72.9322 61.4938C71.0532 60.3743 69.2745 59.3169 67.2702 58.1352C66.456 57.6625 65.028 57.0654 64.5019 56.431C63.8505 55.6349 63.3745 54.0924 62.8359 52.9978C59.5038 46.1686 56.3346 39.2649 53.1153 32.4108C52.5892 31.2913 52.1758 30.0722 51.3366 29.1766C51.0109 32.1994 51.1487 35.4709 51.1487 38.7051C51.1487 41.9642 51.2489 45.3103 51.0234 48.4823C49.9461 48.2584 49.0192 47.5494 48.0672 47.0145C45.2362 45.3974 42.2048 43.7927 39.4615 42.0015C39.3487 28.4551 39.3613 13.9634 39.4615 0.205613C39.4949 0.122685 39.5575 0.064635 39.6494 0.0314636Z" fill="black"/>
<path fill-rule="evenodd" clip-rule="evenodd" d="M48.9941 50.6219C47.6412 55.4358 46.088 60.0881 44.685 64.9145C44.234 66.4819 43.5326 68.0244 43.3948 69.6912C44.3217 69.5046 45.1234 68.92 45.9251 68.4597C51.5745 65.2006 57.3242 61.8047 63.149 58.6203C67.0572 60.5981 70.5396 62.9865 74.1723 65.2255C73.6712 65.947 72.7944 66.2455 72.0678 66.6934C64.1261 71.582 55.7709 76.0974 47.5786 80.9861C45.4742 82.2549 43.2194 83.5734 40.8769 84.8422C40.2631 85.1781 39.0356 85.9742 38.5345 85.9991C37.7078 86.0364 36.2797 84.9417 35.5281 84.5312C33.5239 83.4739 31.6951 82.5161 29.7409 81.4836C28.8014 80.9736 27.7993 80.4885 27.0352 79.767C27.9622 76.5701 29.0896 73.4106 30.1668 70.2385C31.2441 67.0665 32.4967 63.9692 33.311 60.6354C32.3214 60.7225 31.5573 61.444 30.7305 61.9291C28.2753 63.3472 25.7199 64.7404 23.2146 66.1958C21.6363 67.1163 19.8826 68.0119 18.2416 69.1315C17.5276 69.6166 16.7385 70.0768 15.7739 70.5993C15.0474 70.9973 13.8448 71.9303 13.1935 71.9427C12.4294 71.9552 10.7258 70.6864 10.112 70.3505C7.10561 68.6961 4.03663 67.1785 1.31839 65.3499C2.59609 64.1806 4.22453 63.484 5.74023 62.6008C10.2122 60.001 14.7718 57.4634 19.2187 54.6522C20.6592 53.7441 22.2501 52.8982 23.7783 52.0275C26.7847 50.2984 29.8161 48.5569 32.8224 46.8279C34.3256 45.9571 35.7662 44.9247 37.3069 44.2032C37.9332 43.9171 40.0001 45.273 40.5763 45.6088C42.4929 46.7284 44.3844 47.7733 46.3009 48.843C47.2529 49.3904 48.2676 49.8506 48.9941 50.6219Z" fill="black"/>
</svg>
